# xmcd CD database file
#
# Track frame offsets:
#	150
#	14045
#	27926
#	40063
#	54184
#	69811
#	84061
#	96199
#	109371
#	124004
#	134645
#	146909
#	159994
#	173598
#
# Disc length: 2565 seconds
#
# Revision: 1
# Processed by: cddbd v1.5.2PL0 Copyright (c) Steve Scherf et al.
# Submitted via: jetAudio 7
#
DISCID=b30a030e
DTITLE=Dolly Parton - The Very Best Of Dolly Parton
DYEAR=1900
DGENRE=Country
TTITLE0=Joshua
TTITLE1=Caot Of Many Colors
TTITLE2=Touch Your Woman
TTITLE3=Mission Chapel Memories
TTITLE4=In The Good Old Days (When Times Were Bad)
TTITLE5=My Tennesse Mountain Home
TTITLE6=Jolene
TTITLE7=I Will Always Love You
TTITLE8=Lonely Comin' Down
TTITLE9=Love Is Like A Butterfly
TTITLE10=The Bargain Store
TTITLE11=Here You Come Again
TTITLE12=9 To 5
TTITLE13=Islands In The Stream
EXTD=
EXTT0=
EXTT1=
EXTT2=
EXTT3=
EXTT4=
EXTT5=
EXTT6=
EXTT7=
EXTT8=
EXTT9=
EXTT10=
EXTT11=
EXTT12=
EXTT13=
PLAYORDER=
